<svg width="35" height="35" viewBox="0 0 35 35" fill="none" xmlns="http://www.w3.org/2000/svg">
<rect x="0.5" y="0.5" width="34" height="34" rx="4.5" fill="white"/>
<rect x="0.5" y="0.5" width="34" height="34" rx="4.5" stroke="#E1DFDF"/>
<g clip-path="url(#clip0_8342_24752)">
<path d="M21.4858 17.2027C21.4575 16.6266 21.3489 16.0788 21.16 15.5593C20.9711 15.0399 20.7114 14.5582 20.3808 14.1143C20.1919 14.3127 19.9747 14.5204 19.7292 14.7377C19.0492 15.3043 18.2653 15.7766 17.3775 16.1543C17.5003 16.4093 17.6089 16.6454 17.7033 16.8627L17.7742 17.061C18.7847 16.9477 19.885 16.9713 21.075 17.1318L21.4858 17.2027ZM14.8417 11.9185C14.9739 12.0979 15.1108 12.2963 15.2525 12.5135C15.7153 13.1841 16.1356 13.8546 16.5133 14.5252L16.7542 14.9502C17.5853 14.6196 18.3031 14.1993 18.9075 13.6893C19.1247 13.5099 19.3136 13.3304 19.4742 13.151C18.9736 12.7354 18.4164 12.4143 17.8025 12.1877C17.1697 11.9516 16.5133 11.8335 15.8333 11.8335C15.5028 11.8335 15.1722 11.8618 14.8417 11.9185ZM10.3508 16.0835C10.7947 16.0741 11.2764 16.0457 11.7958 15.9985C12.9953 15.8852 14.1428 15.6916 15.2383 15.4177C14.8417 14.7188 14.4025 14.0104 13.9208 13.2927C13.7131 12.981 13.5147 12.6882 13.3258 12.4143C12.5892 12.7827 11.9588 13.2856 11.4346 13.9231C10.9104 14.5606 10.5492 15.2807 10.3508 16.0835ZM11.4275 21.0702C11.7392 20.6168 12.1122 20.1682 12.5467 19.7243C13.6422 18.6004 14.8606 17.8213 16.2017 17.3868L16.2442 17.3727C16.1214 17.1177 16.0081 16.8863 15.9042 16.6785C14.6575 17.0374 13.3117 17.2829 11.8667 17.4152C11.2528 17.4718 10.6861 17.5002 10.1667 17.5002C10.1667 18.1707 10.28 18.8129 10.5067 19.4268C10.7239 20.0218 11.0308 20.5696 11.4275 21.0702ZM17.9583 22.756C17.8828 22.3404 17.7836 21.906 17.6608 21.4527C17.4247 20.5082 17.1414 19.5921 16.8108 18.7043C15.4508 19.1954 14.3081 19.9179 13.3825 20.8718C12.9953 21.2685 12.6836 21.6604 12.4475 22.0477C12.9292 22.4066 13.4581 22.6828 14.0342 22.8764C14.6103 23.07 15.21 23.1668 15.8333 23.1668C16.57 23.1668 17.2783 23.0299 17.9583 22.756ZM19.29 21.991C19.8378 21.566 20.2958 21.0584 20.6642 20.4681C21.0325 19.8778 21.2781 19.2379 21.4008 18.5485C21.1269 18.4729 20.8342 18.4163 20.5225 18.3785C19.7386 18.2652 18.9878 18.2557 18.27 18.3502C18.5817 19.2191 18.8461 20.1021 19.0633 20.9993C19.1483 21.3488 19.2239 21.6793 19.29 21.991ZM15.8333 24.5835C14.87 24.5835 13.9492 24.3993 13.0708 24.031C12.2303 23.6721 11.4818 23.1645 10.8254 22.5081C10.169 21.8517 9.66139 21.1032 9.3025 20.2627C8.93417 19.3843 8.75 18.4635 8.75 17.5002C8.75 16.5368 8.93417 15.616 9.3025 14.7377C9.66139 13.8971 10.169 13.1486 10.8254 12.4922C11.4818 11.8359 12.2303 11.3282 13.0708 10.9693C13.9492 10.601 14.87 10.4168 15.8333 10.4168C16.7967 10.4168 17.7175 10.601 18.5958 10.9693C19.4364 11.3282 20.1849 11.8359 20.8413 12.4922C21.4976 13.1486 22.0053 13.8971 22.3642 14.7377C22.7325 15.616 22.9167 16.5368 22.9167 17.5002C22.9167 18.4635 22.7325 19.3843 22.3642 20.2627C22.0053 21.1032 21.4976 21.8517 20.8413 22.5081C20.1849 23.1645 19.4364 23.6721 18.5958 24.031C17.7175 24.3993 16.7967 24.5835 15.8333 24.5835Z" fill="black"/>
</g>
<defs>
<clipPath id="clip0_8342_24752">
<rect width="17.48" height="17" fill="white" transform="matrix(1 0 0 -1 8.75 26)"/>
</clipPath>
</defs>
</svg>
