<svg width="35" height="35" viewBox="0 0 35 35" fill="none" xmlns="http://www.w3.org/2000/svg">
<rect x="0.5" y="0.5" width="34" height="34" rx="4.5" fill="white"/>
<rect x="0.5" y="0.5" width="34" height="34" rx="4.5" stroke="#E1DFDF"/>
<g clip-path="url(#clip0_8342_24755)">
<path d="M15.8333 15.3752C15.4461 15.3752 15.0896 15.4696 14.7638 15.6585C14.4379 15.8474 14.1806 16.1047 13.9917 16.4306C13.8028 16.7564 13.7083 17.1129 13.7083 17.5002C13.7083 17.8874 13.8028 18.2439 13.9917 18.5697C14.1806 18.8956 14.4379 19.1529 14.7638 19.3418C15.0896 19.5307 15.4461 19.6252 15.8333 19.6252C16.2206 19.6252 16.5771 19.5307 16.9029 19.3418C17.2288 19.1529 17.4861 18.8956 17.675 18.5697C17.8639 18.2439 17.9583 17.8874 17.9583 17.5002C17.9583 17.1129 17.8639 16.7564 17.675 16.4306C17.4861 16.1047 17.2288 15.8474 16.9029 15.6585C16.5771 15.4696 16.2206 15.3752 15.8333 15.3752ZM15.8333 13.9585C16.4756 13.9585 17.0682 14.1167 17.6112 14.4331C18.1543 14.7495 18.584 15.1792 18.9004 15.7222C19.2168 16.2653 19.375 16.8579 19.375 17.5002C19.375 18.1424 19.2168 18.735 18.9004 19.2781C18.584 19.8211 18.1543 20.2509 17.6112 20.5672C17.0682 20.8836 16.4756 21.0418 15.8333 21.0418C15.1911 21.0418 14.5985 20.8836 14.0554 20.5672C13.5124 20.2509 13.0826 19.8211 12.7663 19.2781C12.4499 18.735 12.2917 18.1424 12.2917 17.5002C12.2917 16.8579 12.4499 16.2653 12.7663 15.7222C13.0826 15.1792 13.5124 14.7495 14.0554 14.4331C14.5985 14.1167 15.1911 13.9585 15.8333 13.9585ZM20.4375 13.7743C20.4375 14.0199 20.3501 14.23 20.1754 14.4047C20.0007 14.5795 19.7929 14.6668 19.5521 14.6668C19.3113 14.6668 19.1035 14.5795 18.9288 14.4047C18.754 14.23 18.6667 14.0222 18.6667 13.7814C18.6667 13.5406 18.754 13.3328 18.9288 13.1581C19.1035 12.9834 19.3113 12.896 19.5521 12.896C19.7929 12.896 20.0007 12.9834 20.1754 13.1581C20.3501 13.3328 20.4375 13.5382 20.4375 13.7743ZM15.8333 11.8335C14.9644 11.8335 14.3742 11.8359 14.0625 11.8406C13.7508 11.8453 13.3919 11.8571 12.9858 11.876C12.4758 11.8949 12.0508 11.9704 11.7108 12.1027C11.4181 12.216 11.1607 12.3836 10.9388 12.6056C10.7168 12.8275 10.5492 13.0849 10.4358 13.3777C10.3036 13.7177 10.2281 14.1427 10.2092 14.6527C10.1903 15.0399 10.1785 15.387 10.1738 15.6939C10.169 16.0009 10.1667 16.6029 10.1667 17.5002C10.1667 18.3691 10.169 18.9593 10.1738 19.271C10.1785 19.5827 10.1903 19.9416 10.2092 20.3477C10.2281 20.8577 10.3036 21.2827 10.4358 21.6227C10.5492 21.9154 10.7168 22.1728 10.9388 22.3947C11.1607 22.6167 11.4181 22.7796 11.7108 22.8835C12.0508 23.0252 12.4758 23.1054 12.9858 23.1243C13.3731 23.1432 13.7201 23.155 14.0271 23.1597C14.334 23.1645 14.9361 23.1668 15.8333 23.1668C16.7022 23.1668 17.2925 23.1645 17.6042 23.1597C17.9158 23.155 18.2747 23.1432 18.6808 23.1243C19.1908 23.1054 19.6158 23.0299 19.9558 22.8977C20.2486 22.7843 20.506 22.6167 20.7279 22.3947C20.9499 22.1728 21.1128 21.9154 21.2167 21.6227C21.3583 21.2827 21.4386 20.8577 21.4575 20.3477C21.4764 19.9604 21.4882 19.6134 21.4929 19.3064C21.4976 18.9995 21.5 18.3974 21.5 17.5002C21.5 16.6313 21.4976 16.041 21.4929 15.7293C21.4882 15.4177 21.4764 15.0588 21.4575 14.6527C21.4386 14.1427 21.3631 13.7177 21.2308 13.3777C21.1175 13.0849 20.9499 12.8275 20.7279 12.6056C20.506 12.3836 20.2486 12.216 19.9558 12.1027C19.6158 11.9704 19.1908 11.8949 18.6808 11.876C18.2936 11.8571 17.9465 11.8453 17.6396 11.8406C17.3326 11.8359 16.7306 11.8335 15.8333 11.8335ZM15.8333 10.4168C16.7589 10.4168 17.3917 10.4216 17.7317 10.431C18.015 10.431 18.355 10.4404 18.7517 10.4593C19.4128 10.4877 19.9842 10.5963 20.4658 10.7852C20.9475 10.9741 21.3678 11.2479 21.7267 11.6068C22.0856 11.9657 22.3594 12.386 22.5483 12.8677C22.7372 13.3493 22.8458 13.9207 22.8742 14.5818C22.8931 14.9879 22.9025 15.3279 22.9025 15.6018C22.9119 15.9607 22.9167 16.5982 22.9167 17.5143C22.9167 18.4304 22.9119 19.0585 22.9025 19.3985C22.9025 19.6818 22.8931 20.0218 22.8742 20.4185C22.8458 21.0796 22.7372 21.651 22.5483 22.1327C22.3594 22.6143 22.0856 23.0346 21.7267 23.3935C21.3678 23.7524 20.9475 24.0263 20.4658 24.2152C19.9842 24.4041 19.4128 24.5127 18.7517 24.541C18.3456 24.5599 18.0056 24.5693 17.7317 24.5693C17.3728 24.5788 16.7353 24.5835 15.8192 24.5835C14.9031 24.5835 14.275 24.5788 13.935 24.5693C13.6517 24.5693 13.3117 24.5599 12.915 24.541C12.2539 24.5127 11.6825 24.4041 11.2008 24.2152C10.7192 24.0263 10.2989 23.7524 9.94 23.3935C9.58111 23.0346 9.30722 22.6143 9.11833 22.1327C8.92944 21.651 8.82083 21.0796 8.7925 20.4185C8.77361 20.0124 8.76417 19.6724 8.76417 19.3985C8.75472 19.0396 8.75 18.4021 8.75 17.486C8.75 16.5699 8.75472 15.9418 8.76417 15.6018C8.76417 15.3185 8.77361 14.9785 8.7925 14.5818C8.82083 13.9207 8.92944 13.3493 9.11833 12.8677C9.30722 12.386 9.58111 11.9657 9.94 11.6068C10.2989 11.2479 10.7192 10.9741 11.2008 10.7852C11.6825 10.5963 12.2539 10.4877 12.915 10.4593C13.3211 10.4404 13.6611 10.431 13.935 10.431C14.2939 10.4216 14.9267 10.4168 15.8333 10.4168Z" fill="black"/>
</g>
<defs>
<clipPath id="clip0_8342_24755">
<rect width="17.48" height="17" fill="white" transform="matrix(1 0 0 -1 8.75 26)"/>
</clipPath>
</defs>
</svg>
